IKResults
version=1
nRows=36
nColumns=8
inDegrees=yes

Units are S.I. units (second, meters, Newtons, ...)
If the header above contains a line with 'inDegrees', this indicates whether rotational values are in degrees (yes) or radians (no).

endheader
time	Shank_rx	Shank_ry	Shank_rz	Shank_tx	Shank_ty	Shank_tz	Rfoot_rz
      6.51000000	     -3.97901524	      3.16587467	    -10.09022443	     -0.23898761	      0.28315809	     -0.62996425	      7.66600433
      6.52000000	     -3.98256323	      3.15406368	    -10.10054113	     -0.23895659	      0.28321496	     -0.62995938	      7.66228294
      6.53000000	     -3.98963395	      3.18749958	    -10.18842870	     -0.23866223	      0.28311206	     -0.62991858	      7.77658451
      6.54000000	     -3.95399236	      3.18138907	    -10.19660350	     -0.23862293	      0.28309966	     -0.62977362	      7.79080688
      6.55000000	     -3.93721833	      3.17490522	    -10.28329648	     -0.23836653	      0.28307337	     -0.62971026	      7.87103900
      6.56000000	     -3.87537775	      3.12759133	    -10.32493489	     -0.23825194	      0.28316773	     -0.62950047	      7.86934800
      6.57000000	     -3.84654341	      3.11588432	    -10.38772145	     -0.23800364	      0.28309468	     -0.62940225	      7.92227179
      6.58000000	     -3.81532201	      3.10194961	    -10.50601500	     -0.23758295	      0.28305892	     -0.62929252	      8.02309683
      6.59000000	     -3.82222910	      3.11363168	    -10.71411162	     -0.23688259	      0.28295900	     -0.62930907	      8.20578203
      6.60000000	     -3.85510064	      3.17017109	    -10.73062946	     -0.23681086	      0.28287705	     -0.62933670	      8.25827777
      6.61000000	     -3.82106341	      3.15074522	    -10.82677077	     -0.23651269	      0.28275964	     -0.62922664	      8.36778237
      6.62000000	     -3.82124723	      3.15073604	    -10.82715644	     -0.23653295	      0.28281018	     -0.62922004	      8.36780505
      6.63000000	     -3.82127484	      3.15067203	    -10.82758706	     -0.23656122	      0.28285912	     -0.62922372	      8.36777628
      6.64000000	     -3.80543337	      3.16048286	    -11.01883566	     -0.23591478	      0.28269850	     -0.62919690	      8.59067520
      6.65000000	     -3.85658414	      3.15671707	    -10.97281909	     -0.23610864	      0.28275657	     -0.62937228	      8.51091657
      6.66000000	     -3.85429316	      3.15699661	    -10.98010091	     -0.23607331	      0.28277443	     -0.62937715	      8.50570670
      6.67000000	     -3.87490855	      3.16887482	    -11.06588041	     -0.23582892	      0.28264133	     -0.62944530	      8.62478181
      6.68000000	     -3.90238724	      3.16006717	    -11.07825739	     -0.23579178	      0.28260886	     -0.62954166	      8.64065930
      6.69000000	     -3.90802849	      3.16462754	    -11.09066106	     -0.23576310	      0.28266774	     -0.62958305	      8.63751607
      6.70000000	     -3.94371426	      3.18326263	    -11.14019697	     -0.23555770	      0.28262999	     -0.62972641	      8.68004984
      6.71000000	     -3.82837666	      3.09350113	    -11.16737977	     -0.23548675	      0.28275390	     -0.62944095	      8.66584216
      6.72000000	     -3.83224725	      3.08422562	    -11.18692013	     -0.23541467	      0.28280532	     -0.62951203	      8.65204586
      6.73000000	     -3.89092039	      3.08593656	    -11.21330916	     -0.23533013	      0.28277713	     -0.62971301	      8.63798362
      6.74000000	     -3.89462073	      3.10166772	    -11.26564429	     -0.23517542	      0.28271339	     -0.62976544	      8.73880358
      6.75000000	     -3.92228084	      3.10499789	    -11.27157907	     -0.23518345	      0.28270463	     -0.62987872	      8.74635913
      6.76000000	     -3.93096031	      3.09121722	    -11.29899287	     -0.23506314	      0.28268758	     -0.62993222	      8.72314438
      6.77000000	     -3.93731515	      3.08294827	    -11.30418522	     -0.23502154	      0.28268269	     -0.62995936	      8.72141335
      6.78000000	     -3.99163623	      3.10334537	    -11.31409668	     -0.23498371	      0.28266742	     -0.63014947	      8.73419636
      6.79000000	     -3.99721308	      3.10883268	    -11.38071288	     -0.23474555	      0.28263731	     -0.63019687	      8.78529550
      6.80000000	     -3.89086633	      3.05302882	    -11.36102638	     -0.23475572	      0.28279136	     -0.62992729	      8.74783409
      6.81000000	     -3.89070143	      3.05300628	    -11.36088217	     -0.23475041	      0.28276290	     -0.62994410	      8.74780078
      6.82000000	     -4.02006110	      3.10195503	    -11.38883670	     -0.23472746	      0.28264639	     -0.63030298	      8.77208667
      6.83000000	     -3.91516363	      3.05262336	    -11.39269857	     -0.23463745	      0.28276841	     -0.63005010	      8.75998948
      6.84000000	     -3.91709068	      3.04798245	    -11.40013286	     -0.23461012	      0.28275880	     -0.63003379	      8.75331718
      6.85000000	     -3.91704498	      3.04794928	    -11.40006889	     -0.23459882	      0.28276616	     -0.63003961	      8.75330237
      6.86000000	     -3.91830229	      3.04330090	    -11.40860654	     -0.23455179	      0.28280713	     -0.63002964	      8.74441456
